<?xml version="1.0" encoding="utf-8"?>
<!-- Generator: Adobe Illustrator 19.0.1, SVG Export Plug-In . SVG Version: 6.00 Build 0)  -->
<svg version="1.1" id="Слой_1" xmlns="http://www.w3.org/2000/svg" xmlns:xlink="http://www.w3.org/1999/xlink" x="0px" y="0px"
	 viewBox="0 0 1800 1000" style="enable-background:new 0 0 1800 1000;" xml:space="preserve">
<style type="text/css">
	.st0{fill:#F2F2F2;stroke:#F2F2F2;stroke-miterlimit:10;}
	.st1{fill:#F2F2F2;}
	.st2{fill:url(#SVGID_1_);stroke:#F2F2F2;stroke-width:2;stroke-miterlimit:10;}
	.st3{stroke:#F2F2F2;stroke-width:2;stroke-miterlimit:10;}
	.st4{fill:#F2F2F2;stroke:#000000;stroke-width:2;stroke-miterlimit:10;}
</style>
<rect x="0.4" y="1.7" width="1800" height="1000"/>
<g>
	<polygon class="st0" points="312.5,783.2 265.8,702.3 359.3,541.4 499.6,785.5 406,785.5 359.3,703.4 	"/>
	<polygon class="st0" points="313,215 406.5,215 499.8,376.8 219,376.7 265.8,295.6 359.5,295.8 	"/>
	<polygon class="st0" points="641.1,215.2 687.8,296.2 594.3,458.3 454.1,215.5 547.6,215.5 594.3,296.3 	"/>
	<polygon class="st0" points="804.9,499.5 758.2,580.5 571.4,580.3 711.9,337.3 758.6,418.3 711.6,499.3 	"/>
	<polygon class="st0" points="640.6,783.5 547.1,783.5 453.9,621.7 734.6,621.8 687.8,702.8 594.1,702.6 	"/>
	<polygon class="st0" points="149.7,499.6 196.4,418.7 383.2,418.8 242.8,661.9 196,580.8 243,499.8 	"/>
</g>
<g>
	<path class="st1" d="M1180.2,586.6c-1.1,1.3-2.4,2.2-3.9,2.9s-3.2,1-5.1,1c-2.7,0-5-0.6-7-1.7c-2-1.1-3.6-2.8-4.7-4.9
		c-1.1-2.1-1.7-4.5-1.7-7.2c0-2.8,0.6-5.4,1.9-7.7s3-4.1,5.2-5.4c2.2-1.2,4.7-1.8,7.4-1.8c2.7,0,5.1,0.6,7.4,1.8v6
		c-1.4-3.7-4.1-5.5-8.1-5.5c-3,0-5.5,1.1-7.3,3.4c-1.8,2.3-2.8,5.1-2.8,8.4c0,2.3,0.4,4.4,1.3,6.2c0.9,1.9,2.1,3.3,3.7,4.4
		c1.6,1.1,3.4,1.6,5.5,1.6c1.5,0,2.9-0.4,4.4-1.1s2.8-1.8,4-3.2V586.6z"/>
	<path class="st1" d="M1221.1,590.6c-2.5,0-4.7-0.6-6.7-1.8s-3.5-2.9-4.6-5c-1.1-2.2-1.6-4.6-1.6-7.3c0-2.7,0.6-5.2,1.8-7.5
		c1.2-2.2,2.8-4,4.9-5.3c2.1-1.3,4.4-1.9,7-1.9c2.5,0,4.7,0.6,6.6,1.8c2,1.2,3.5,2.9,4.6,5c1.1,2.2,1.6,4.6,1.6,7.2
		c0,2.8-0.6,5.3-1.8,7.6c-1.2,2.2-2.8,4-4.8,5.2S1223.6,590.6,1221.1,590.6z M1221.9,588.3c1.8,0,3.5-0.5,4.9-1.4
		c1.4-1,2.6-2.3,3.3-4c0.8-1.7,1.2-3.7,1.2-5.9c0-2.5-0.4-4.7-1.3-6.6c-0.9-1.9-2.1-3.4-3.7-4.5c-1.6-1.1-3.4-1.6-5.4-1.6
		c-1.8,0-3.5,0.5-4.9,1.4c-1.4,0.9-2.6,2.3-3.3,4c-0.8,1.7-1.2,3.7-1.2,5.8c0,2.5,0.4,4.7,1.3,6.7c0.9,2,2.1,3.5,3.7,4.6
		C1218.1,587.8,1219.9,588.3,1221.9,588.3z"/>
	<path class="st1" d="M1265.5,566.5c0-0.8-0.1-1.5-0.3-2.1c-0.2-0.5-0.4-0.9-0.7-1.2c-0.3-0.3-0.6-0.5-1.1-0.6h9.6
		c1.8,0,3.3,0.3,4.7,1s2.4,1.6,3.1,2.7c0.7,1.2,1.1,2.4,1.1,3.8c0,1.3-0.3,2.5-0.9,3.6c-0.6,1.1-1.5,2-2.6,2.7
		c-1.1,0.7-2.5,1.1-4,1.2c0.7,0.3,1.5,1.1,2.1,2.2l4.8,7.8c0.3,0.4,0.6,0.8,0.9,1.1c0.3,0.3,0.6,0.5,0.9,0.7
		c0.3,0.2,0.8,0.3,1.5,0.5h-5.7l-5.8-9.6c-0.5-0.9-1.1-1.5-1.6-1.9c-0.5-0.3-1.2-0.5-2-0.5h-1v8.2c0,1.1,0.2,2,0.5,2.7
		c0.3,0.7,0.8,1,1.4,1.1h-7c0.6-0.1,1.1-0.5,1.4-1.2c0.3-0.7,0.5-1.5,0.5-2.6V566.5z M1272.4,576c2,0,3.5-0.5,4.6-1.5
		c1.1-1,1.6-2.4,1.6-4.2c0-1-0.3-2-0.8-2.9c-0.5-0.9-1.3-1.6-2.2-2.1s-2-0.7-3.2-0.7h-3.7V576H1272.4z"/>
	<path class="st1" d="M1314.4,566.4c0-1.1-0.2-2-0.5-2.7c-0.4-0.7-0.8-1.1-1.5-1.2h10.2c1.7,0,3.3,0.3,4.6,1
		c1.3,0.7,2.4,1.6,3.1,2.8c0.7,1.2,1.1,2.6,1.1,4.1c0,1.6-0.4,3-1.2,4.3c-0.8,1.3-1.9,2.3-3.3,3c-1.5,0.7-3.1,1.1-5,1.1
		c-0.7,0-1.5-0.1-2.3-0.2c-0.9-0.1-1.5-0.2-1.9-0.4v7.8c0,1.1,0.2,2,0.5,2.6c0.3,0.7,0.8,1,1.5,1.2h-7.1c0.6-0.1,1.1-0.5,1.4-1.2
		c0.3-0.7,0.5-1.5,0.5-2.6V566.4z M1317.6,576.3c0.4,0.1,1,0.2,1.8,0.3c0.8,0.1,1.6,0.1,2.3,0.1c1.9,0,3.4-0.6,4.5-1.7
		c1.1-1.1,1.7-2.6,1.7-4.3c0-1.8-0.6-3.3-1.7-4.4c-1.2-1.1-2.7-1.7-4.6-1.7h-4V576.3z"/>
	<path class="st1" d="M1359.9,588.1c0-0.7,0.2-1.2,0.7-1.7c0.5-0.4,1-0.7,1.8-0.7c0.7,0,1.3,0.2,1.7,0.7c0.4,0.4,0.7,1,0.7,1.7
		c0,0.7-0.2,1.3-0.7,1.7c-0.4,0.5-1,0.7-1.7,0.7c-0.7,0-1.3-0.2-1.8-0.7S1359.9,588.7,1359.9,588.1z"/>
</g>
<linearGradient id="SVGID_1_" gradientUnits="userSpaceOnUse" x1="862" y1="579" x2="1130" y2="579">
	<stop  offset="0" style="stop-color:#000000;stop-opacity:0.1"/>
	<stop  offset="2.548826e-002" style="stop-color:#141414;stop-opacity:0.1229"/>
	<stop  offset="9.506869e-002" style="stop-color:#454545;stop-opacity:0.1856"/>
	<stop  offset="0.1702" style="stop-color:#717171;stop-opacity:0.2532"/>
	<stop  offset="0.2492" style="stop-color:#979797;stop-opacity:0.3243"/>
	<stop  offset="0.3331" style="stop-color:#B8B8B8;stop-opacity:0.3998"/>
	<stop  offset="0.4232" style="stop-color:#D2D2D2;stop-opacity:0.4809"/>
	<stop  offset="0.5221" style="stop-color:#E6E6E6;stop-opacity:0.5699"/>
	<stop  offset="0.6341" style="stop-color:#F4F4F4;stop-opacity:0.6707"/>
	<stop  offset="0.7705" style="stop-color:#FCFCFC;stop-opacity:0.7934"/>
	<stop  offset="1" style="stop-color:#FFFFFF"/>
</linearGradient>
<line class="st2" x1="1130" y1="579" x2="862" y2="579"/>
<line class="st3" x1="1650" y1="579" x2="1382" y2="579"/>
<polygon class="st4" points="1360.8,495.4 1355.1,485.9 1380.9,442 1392.8,442 "/>
<polygon class="st4" points="1360.8,495.2 1367.5,483.7 1342.9,441.5 1329.2,441.5 "/>
<polygon class="st4" points="1329.2,441.8 1335.1,452 1386.8,452 1392.8,441.9 "/>
<polygon class="st1" points="1412.6,497 1352.4,392.4 1361.3,377 1430.2,497 "/>
<polygon class="st1" points="1309.5,497 1370,392.2 1361.3,377 1303.5,477 "/>
<g>
	<polygon class="st1" points="1225.2,443.5 1175.1,396.8 1175,377.7 1225.3,424.4 	"/>
	<polygon class="st1" points="1225.2,443.5 1275.3,396.8 1275.4,377.7 1225.3,424.4 	"/>
	<polygon class="st1" points="1188.9,497 1188.9,390.8 1175,377.7 1175,483.9 	"/>
	<polygon class="st1" points="1261.4,497 1261.4,390.8 1275.4,377.7 1275.4,483.9 	"/>
</g>
<polygon class="st1" points="972.3,497.3 903.8,497.3 890.7,483.4 959.2,483.4 "/>
<polygon class="st1" points="971.2,391.1 904.1,391.1 890.2,378 958.6,378 "/>
<polygon class="st1" points="904.1,497.3 904.1,391.1 890.2,378 890.2,484.2 "/>
<polygon class="st1" points="1085.4,496.2 1016.9,496.2 1003.8,482.2 1072.3,482.2 "/>
<polygon class="st1" points="1129.2,497.2 1129.2,391 1115.3,377.9 1115.3,484.1 "/>
<polygon class="st1" points="1016.9,496.2 1017.7,390 1003.8,376.8 1003.8,483 "/>
<polygon id="_x31__2_" class="st1" points="1460.3,378.6 1460.3,484.8 1474.2,497.9 1474.2,391.7 "/>
<polygon class="st1" points="1508.1,392.5 1439.6,392.5 1426.5,378.6 1495,378.6 "/>
<polygon class="st1" points="1611.5,497.9 1543.1,497.9 1529.9,484 1598.4,484 "/>
<polygon class="st1" points="1611.5,392.5 1543.1,392.5 1529.9,378.6 1598.4,378.6 "/>
<polygon class="st1" points="1611.5,445.1 1543.1,445.1 1529.9,431.2 1598.4,431.2 "/>
<polygon class="st1" points="1543.1,497.9 1543.1,392.5 1529.9,378.6 1529.9,484.8 "/>
<g>
</g>
<g>
</g>
<g>
</g>
<g>
</g>
<g>
</g>
<g>
</g>
<g>
</g>
<g>
</g>
<g>
</g>
<g>
</g>
<g>
</g>
<g>
</g>
<g>
</g>
<g>
</g>
<g>
</g>
</svg>
