<?xml version="1.0" encoding="utf-8"?>
<!-- Generator: Adobe Illustrator 19.0.1, SVG Export Plug-In . SVG Version: 6.00 Build 0)  -->
<svg version="1.1" id="Слой_1" xmlns="http://www.w3.org/2000/svg" xmlns:xlink="http://www.w3.org/1999/xlink" x="0px" y="0px"
	 viewBox="420 -220 1800 1000" style="enable-background:new 420 -220 1800 1000;" xml:space="preserve">
<style type="text/css">
	.st0{stroke:#F2F2F2;stroke-miterlimit:10;}
	.st1{fill:#F2F2F2;stroke:#000000;stroke-width:2;stroke-miterlimit:10;}
	.st2{stroke:#FFFFFF;stroke-width:2;stroke-miterlimit:10;}
</style>
<g>
	<polygon class="st0" points="732.5,563.2 685.8,482.3 779.3,321.4 919.6,565.5 826,565.5 779.3,483.4 	"/>
	<polygon class="st0" points="733,-5 826.5,-5 919.8,156.8 639,156.7 685.8,75.6 779.5,75.8 	"/>
	<polygon class="st0" points="1061.1,-4.8 1107.8,76.2 1014.3,238.3 874.1,-4.5 967.6,-4.5 1014.3,76.3 	"/>
	<polygon class="st0" points="1224.9,279.5 1178.2,360.5 991.4,360.3 1131.9,117.3 1178.6,198.3 1131.6,279.3 	"/>
	<polygon class="st0" points="1060.6,563.5 967.1,563.5 873.9,401.7 1154.6,401.8 1107.8,482.8 1014.1,482.6 	"/>
	<polygon class="st0" points="569.7,279.6 616.4,198.7 803.2,198.8 662.8,441.9 616,360.8 663,279.8 	"/>
</g>
<g>
	<path d="M1600.2,366.6c-1.1,1.3-2.4,2.2-3.9,2.9s-3.2,1-5.1,1c-2.7,0-5-0.6-7-1.7c-2-1.1-3.6-2.8-4.7-4.9c-1.1-2.1-1.7-4.5-1.7-7.2
		c0-2.8,0.6-5.4,1.9-7.7s3-4.1,5.2-5.4c2.2-1.2,4.7-1.8,7.4-1.8c2.7,0,5.1,0.6,7.4,1.8v6c-1.4-3.7-4.1-5.5-8.1-5.5
		c-3,0-5.5,1.1-7.3,3.4c-1.8,2.3-2.8,5.1-2.8,8.4c0,2.3,0.4,4.4,1.3,6.2c0.9,1.9,2.1,3.3,3.7,4.4c1.6,1.1,3.4,1.6,5.5,1.6
		c1.5,0,2.9-0.4,4.4-1.1s2.8-1.8,4-3.2v2.8H1600.2z"/>
	<path d="M1641.1,370.6c-2.5,0-4.7-0.6-6.7-1.8s-3.5-2.9-4.6-5c-1.1-2.2-1.6-4.6-1.6-7.3s0.6-5.2,1.8-7.5c1.2-2.2,2.8-4,4.9-5.3
		s4.4-1.9,7-1.9c2.5,0,4.7,0.6,6.6,1.8c2,1.2,3.5,2.9,4.6,5c1.1,2.2,1.6,4.6,1.6,7.2c0,2.8-0.6,5.3-1.8,7.6c-1.2,2.2-2.8,4-4.8,5.2
		S1643.6,370.6,1641.1,370.6z M1641.9,368.3c1.8,0,3.5-0.5,4.9-1.4c1.4-1,2.6-2.3,3.3-4c0.8-1.7,1.2-3.7,1.2-5.9
		c0-2.5-0.4-4.7-1.3-6.6c-0.9-1.9-2.1-3.4-3.7-4.5s-3.4-1.6-5.4-1.6c-1.8,0-3.5,0.5-4.9,1.4s-2.6,2.3-3.3,4
		c-0.8,1.7-1.2,3.7-1.2,5.8c0,2.5,0.4,4.7,1.3,6.7s2.1,3.5,3.7,4.6C1638.1,367.8,1639.9,368.3,1641.9,368.3z"/>
	<path d="M1685.5,346.5c0-0.8-0.1-1.5-0.3-2.1c-0.2-0.5-0.4-0.9-0.7-1.2c-0.3-0.3-0.6-0.5-1.1-0.6h9.6c1.8,0,3.3,0.3,4.7,1
		s2.4,1.6,3.1,2.7c0.7,1.2,1.1,2.4,1.1,3.8c0,1.3-0.3,2.5-0.9,3.6s-1.5,2-2.6,2.7s-2.5,1.1-4,1.2c0.7,0.3,1.5,1.1,2.1,2.2l4.8,7.8
		c0.3,0.4,0.6,0.8,0.9,1.1s0.6,0.5,0.9,0.7s0.8,0.3,1.5,0.5h-5.7l-5.8-9.6c-0.5-0.9-1.1-1.5-1.6-1.9c-0.5-0.3-1.2-0.5-2-0.5h-1v8.2
		c0,1.1,0.2,2,0.5,2.7s0.8,1,1.4,1.1h-7c0.6-0.1,1.1-0.5,1.4-1.2s0.5-1.5,0.5-2.6v-19.6H1685.5z M1692.4,356c2,0,3.5-0.5,4.6-1.5
		s1.6-2.4,1.6-4.2c0-1-0.3-2-0.8-2.9s-1.3-1.6-2.2-2.1s-2-0.7-3.2-0.7h-3.7V356H1692.4z"/>
	<path d="M1734.4,346.4c0-1.1-0.2-2-0.5-2.7c-0.4-0.7-0.8-1.1-1.5-1.2h10.2c1.7,0,3.3,0.3,4.6,1c1.3,0.7,2.4,1.6,3.1,2.8
		s1.1,2.6,1.1,4.1c0,1.6-0.4,3-1.2,4.3c-0.8,1.3-1.9,2.3-3.3,3c-1.5,0.7-3.1,1.1-5,1.1c-0.7,0-1.5-0.1-2.3-0.2
		c-0.9-0.1-1.5-0.2-1.9-0.4v7.8c0,1.1,0.2,2,0.5,2.6c0.3,0.7,0.8,1,1.5,1.2h-7.1c0.6-0.1,1.1-0.5,1.4-1.2s0.5-1.5,0.5-2.6
		L1734.4,346.4L1734.4,346.4z M1737.6,356.3c0.4,0.1,1,0.2,1.8,0.3s1.6,0.1,2.3,0.1c1.9,0,3.4-0.6,4.5-1.7c1.1-1.1,1.7-2.6,1.7-4.3
		c0-1.8-0.6-3.3-1.7-4.4c-1.2-1.1-2.7-1.7-4.6-1.7h-4L1737.6,356.3L1737.6,356.3z"/>
	<path d="M1779.9,368.1c0-0.7,0.2-1.2,0.7-1.7c0.5-0.4,1-0.7,1.8-0.7c0.7,0,1.3,0.2,1.7,0.7c0.4,0.4,0.7,1,0.7,1.7s-0.2,1.3-0.7,1.7
		c-0.4,0.5-1,0.7-1.7,0.7s-1.3-0.2-1.8-0.7S1779.9,368.7,1779.9,368.1z"/>
</g>
<line class="st1" x1="1550" y1="359" x2="1282" y2="359"/>
<line class="st1" x1="2070" y1="359" x2="1802" y2="359"/>
<polygon class="st2" points="1780.8,275.4 1775.1,265.9 1800.9,222 1812.8,222 "/>
<polygon class="st2" points="1780.8,275.2 1787.5,263.7 1762.9,221.5 1749.2,221.5 "/>
<polygon class="st2" points="1749.2,221.8 1755.1,232 1806.8,232 1812.8,221.9 "/>
<polygon points="1832.6,277 1772.4,172.4 1781.3,157 1850.2,277 "/>
<polygon points="1729.5,277 1790,172.2 1781.3,157 1723.5,257 "/>
<g>
	<polygon points="1645.2,223.5 1595.1,176.8 1595,157.7 1645.3,204.4 	"/>
	<polygon points="1645.2,223.5 1695.3,176.8 1695.4,157.7 1645.3,204.4 	"/>
	<polygon points="1608.9,277 1608.9,170.8 1595,157.7 1595,263.9 	"/>
	<polygon points="1681.4,277 1681.4,170.8 1695.4,157.7 1695.4,263.9 	"/>
</g>
<polygon points="1392.3,277.3 1323.8,277.3 1310.7,263.4 1379.2,263.4 "/>
<polygon points="1391.2,171.1 1324.1,171.1 1310.2,158 1378.6,158 "/>
<polygon points="1324.1,277.3 1324.1,171.1 1310.2,158 1310.2,264.2 "/>
<polygon points="1505.4,276.2 1436.9,276.2 1423.8,262.2 1492.3,262.2 "/>
<polygon points="1549.2,277.2 1549.2,171 1535.3,157.9 1535.3,264.1 "/>
<polygon points="1436.9,276.2 1437.7,170 1423.8,156.8 1423.8,263 "/>
<polygon id="_x31__2_" points="1880.3,158.6 1880.3,264.8 1894.2,277.9 1894.2,171.7 "/>
<polygon points="1928.1,172.5 1859.6,172.5 1846.5,158.6 1915,158.6 "/>
<polygon points="2031.5,277.9 1963.1,277.9 1949.9,264 2018.4,264 "/>
<polygon points="2031.5,172.5 1963.1,172.5 1949.9,158.6 2018.4,158.6 "/>
<polygon points="2031.5,225.1 1963.1,225.1 1949.9,211.2 2018.4,211.2 "/>
<polygon points="1963.1,277.9 1963.1,172.5 1949.9,158.6 1949.9,264.8 "/>
</svg>
